<mxfile host="app.diagrams.net" modified="2022-03-07T20:49:34.429Z" agent="5.0 (Windows NT 10.0; Win64; x64) AppleWebKit/537.36 (KHTML, like Gecko) Chrome/98.0.4758.102 Safari/537.36" etag="sb0GJE7gRufi-xY6VUbH" version="16.5.2" type="github">
  <diagram id="I4fLBjJm4LA_Jybld9Be" name="Page-1">
    <mxGraphModel dx="1040" dy="564" grid="1" gridSize="10" guides="1" tooltips="1" connect="1" arrows="1" fold="1" page="1" pageScale="1" pageWidth="827" pageHeight="1169" math="0" shadow="0">
      <root>
        <mxCell id="0" />
        <mxCell id="1" parent="0" />
        <mxCell id="hlCE5V2Zfkp0jTcQH9FX-5" style="edgeStyle=orthogonalEdgeStyle;rounded=0;orthogonalLoop=1;jettySize=auto;html=1;exitX=0.5;exitY=1;exitDx=0;exitDy=0;endArrow=none;endFill=0;" edge="1" parent="1" source="hlCE5V2Zfkp0jTcQH9FX-1" target="hlCE5V2Zfkp0jTcQH9FX-2">
          <mxGeometry relative="1" as="geometry" />
        </mxCell>
        <mxCell id="hlCE5V2Zfkp0jTcQH9FX-1" value="M_13" style="text;html=1;strokeColor=none;fillColor=none;align=center;verticalAlign=middle;whiteSpace=wrap;rounded=0;" vertex="1" parent="1">
          <mxGeometry x="380" y="320" width="60" height="30" as="geometry" />
        </mxCell>
        <mxCell id="hlCE5V2Zfkp0jTcQH9FX-7" style="edgeStyle=orthogonalEdgeStyle;rounded=0;orthogonalLoop=1;jettySize=auto;html=1;exitX=0.5;exitY=1;exitDx=0;exitDy=0;endArrow=none;endFill=0;" edge="1" parent="1" source="hlCE5V2Zfkp0jTcQH9FX-2" target="hlCE5V2Zfkp0jTcQH9FX-6">
          <mxGeometry relative="1" as="geometry" />
        </mxCell>
        <mxCell id="hlCE5V2Zfkp0jTcQH9FX-2" value="M_5" style="text;html=1;strokeColor=none;fillColor=none;align=center;verticalAlign=middle;whiteSpace=wrap;rounded=0;" vertex="1" parent="1">
          <mxGeometry x="380" y="370" width="60" height="30" as="geometry" />
        </mxCell>
        <mxCell id="hlCE5V2Zfkp0jTcQH9FX-4" style="edgeStyle=orthogonalEdgeStyle;rounded=0;orthogonalLoop=1;jettySize=auto;html=1;entryX=1;entryY=0.5;entryDx=0;entryDy=0;endArrow=none;endFill=0;" edge="1" parent="1" source="hlCE5V2Zfkp0jTcQH9FX-3" target="hlCE5V2Zfkp0jTcQH9FX-2">
          <mxGeometry relative="1" as="geometry">
            <mxPoint x="630" y="385" as="targetPoint" />
          </mxGeometry>
        </mxCell>
        <mxCell id="hlCE5V2Zfkp0jTcQH9FX-9" style="edgeStyle=orthogonalEdgeStyle;rounded=0;orthogonalLoop=1;jettySize=auto;html=1;exitX=0.5;exitY=1;exitDx=0;exitDy=0;endArrow=none;endFill=0;" edge="1" parent="1" source="hlCE5V2Zfkp0jTcQH9FX-3" target="hlCE5V2Zfkp0jTcQH9FX-8">
          <mxGeometry relative="1" as="geometry" />
        </mxCell>
        <mxCell id="hlCE5V2Zfkp0jTcQH9FX-21" style="edgeStyle=orthogonalEdgeStyle;rounded=0;orthogonalLoop=1;jettySize=auto;html=1;exitX=1;exitY=0.5;exitDx=0;exitDy=0;entryX=0;entryY=0.5;entryDx=0;entryDy=0;endArrow=none;endFill=0;" edge="1" parent="1" source="hlCE5V2Zfkp0jTcQH9FX-3" target="hlCE5V2Zfkp0jTcQH9FX-20">
          <mxGeometry relative="1" as="geometry" />
        </mxCell>
        <mxCell id="hlCE5V2Zfkp0jTcQH9FX-3" value="M_6 x 2" style="text;html=1;strokeColor=none;fillColor=none;align=center;verticalAlign=middle;whiteSpace=wrap;rounded=0;" vertex="1" parent="1">
          <mxGeometry x="680" y="370" width="60" height="30" as="geometry" />
        </mxCell>
        <mxCell id="hlCE5V2Zfkp0jTcQH9FX-11" style="edgeStyle=orthogonalEdgeStyle;rounded=0;orthogonalLoop=1;jettySize=auto;html=1;exitX=1;exitY=0.5;exitDx=0;exitDy=0;endArrow=none;endFill=0;" edge="1" parent="1" source="hlCE5V2Zfkp0jTcQH9FX-6" target="hlCE5V2Zfkp0jTcQH9FX-10">
          <mxGeometry relative="1" as="geometry" />
        </mxCell>
        <mxCell id="hlCE5V2Zfkp0jTcQH9FX-26" style="edgeStyle=orthogonalEdgeStyle;rounded=0;orthogonalLoop=1;jettySize=auto;html=1;exitX=0.5;exitY=1;exitDx=0;exitDy=0;endArrow=none;endFill=0;" edge="1" parent="1" source="hlCE5V2Zfkp0jTcQH9FX-6">
          <mxGeometry relative="1" as="geometry">
            <mxPoint x="409.80952380952374" y="470" as="targetPoint" />
          </mxGeometry>
        </mxCell>
        <mxCell id="hlCE5V2Zfkp0jTcQH9FX-6" value="F_16" style="text;html=1;strokeColor=none;fillColor=none;align=center;verticalAlign=middle;whiteSpace=wrap;rounded=0;" vertex="1" parent="1">
          <mxGeometry x="380" y="420" width="60" height="30" as="geometry" />
        </mxCell>
        <mxCell id="hlCE5V2Zfkp0jTcQH9FX-35" style="edgeStyle=orthogonalEdgeStyle;rounded=0;orthogonalLoop=1;jettySize=auto;html=1;exitX=1;exitY=0.5;exitDx=0;exitDy=0;entryX=0;entryY=0.5;entryDx=0;entryDy=0;endArrow=none;endFill=0;" edge="1" parent="1" source="hlCE5V2Zfkp0jTcQH9FX-8" target="hlCE5V2Zfkp0jTcQH9FX-34">
          <mxGeometry relative="1" as="geometry" />
        </mxCell>
        <mxCell id="hlCE5V2Zfkp0jTcQH9FX-47" style="edgeStyle=orthogonalEdgeStyle;rounded=0;orthogonalLoop=1;jettySize=auto;html=1;exitX=0.5;exitY=1;exitDx=0;exitDy=0;entryX=0.5;entryY=0;entryDx=0;entryDy=0;endArrow=none;endFill=0;" edge="1" parent="1" source="hlCE5V2Zfkp0jTcQH9FX-8" target="hlCE5V2Zfkp0jTcQH9FX-46">
          <mxGeometry relative="1" as="geometry" />
        </mxCell>
        <mxCell id="hlCE5V2Zfkp0jTcQH9FX-8" value="F_17" style="text;html=1;strokeColor=none;fillColor=none;align=center;verticalAlign=middle;whiteSpace=wrap;rounded=0;" vertex="1" parent="1">
          <mxGeometry x="680" y="420" width="60" height="30" as="geometry" />
        </mxCell>
        <mxCell id="hlCE5V2Zfkp0jTcQH9FX-13" style="edgeStyle=orthogonalEdgeStyle;rounded=0;orthogonalLoop=1;jettySize=auto;html=1;exitX=1;exitY=0.5;exitDx=0;exitDy=0;endArrow=none;endFill=0;" edge="1" parent="1" source="hlCE5V2Zfkp0jTcQH9FX-10" target="hlCE5V2Zfkp0jTcQH9FX-12">
          <mxGeometry relative="1" as="geometry" />
        </mxCell>
        <mxCell id="hlCE5V2Zfkp0jTcQH9FX-16" style="edgeStyle=orthogonalEdgeStyle;rounded=0;orthogonalLoop=1;jettySize=auto;html=1;exitX=0.5;exitY=1;exitDx=0;exitDy=0;endArrow=none;endFill=0;" edge="1" parent="1" source="hlCE5V2Zfkp0jTcQH9FX-10">
          <mxGeometry relative="1" as="geometry">
            <mxPoint x="490" y="470" as="targetPoint" />
          </mxGeometry>
        </mxCell>
        <mxCell id="hlCE5V2Zfkp0jTcQH9FX-10" value="F_6 x 4" style="text;html=1;strokeColor=none;fillColor=none;align=center;verticalAlign=middle;whiteSpace=wrap;rounded=0;" vertex="1" parent="1">
          <mxGeometry x="460" y="420" width="60" height="30" as="geometry" />
        </mxCell>
        <mxCell id="hlCE5V2Zfkp0jTcQH9FX-15" style="edgeStyle=orthogonalEdgeStyle;rounded=0;orthogonalLoop=1;jettySize=auto;html=1;exitX=1;exitY=0.5;exitDx=0;exitDy=0;entryX=0;entryY=0.5;entryDx=0;entryDy=0;endArrow=none;endFill=0;" edge="1" parent="1" source="hlCE5V2Zfkp0jTcQH9FX-12" target="hlCE5V2Zfkp0jTcQH9FX-14">
          <mxGeometry relative="1" as="geometry" />
        </mxCell>
        <mxCell id="hlCE5V2Zfkp0jTcQH9FX-19" style="edgeStyle=orthogonalEdgeStyle;rounded=0;orthogonalLoop=1;jettySize=auto;html=1;exitX=0.5;exitY=1;exitDx=0;exitDy=0;endArrow=none;endFill=0;" edge="1" parent="1" source="hlCE5V2Zfkp0jTcQH9FX-12" target="hlCE5V2Zfkp0jTcQH9FX-18">
          <mxGeometry relative="1" as="geometry" />
        </mxCell>
        <mxCell id="hlCE5V2Zfkp0jTcQH9FX-12" value="F_8 x 2" style="text;html=1;strokeColor=none;fillColor=none;align=center;verticalAlign=middle;whiteSpace=wrap;rounded=0;" vertex="1" parent="1">
          <mxGeometry x="540" y="420" width="60" height="30" as="geometry" />
        </mxCell>
        <mxCell id="hlCE5V2Zfkp0jTcQH9FX-14" value="F_5 x 16" style="text;html=1;strokeColor=none;fillColor=none;align=center;verticalAlign=middle;whiteSpace=wrap;rounded=0;" vertex="1" parent="1">
          <mxGeometry x="620" y="420" width="60" height="30" as="geometry" />
        </mxCell>
        <mxCell id="hlCE5V2Zfkp0jTcQH9FX-17" value="I_2&amp;nbsp;" style="text;html=1;strokeColor=none;fillColor=none;align=center;verticalAlign=middle;whiteSpace=wrap;rounded=0;" vertex="1" parent="1">
          <mxGeometry x="460" y="470" width="60" height="30" as="geometry" />
        </mxCell>
        <mxCell id="hlCE5V2Zfkp0jTcQH9FX-18" value="I_2" style="text;html=1;strokeColor=none;fillColor=none;align=center;verticalAlign=middle;whiteSpace=wrap;rounded=0;" vertex="1" parent="1">
          <mxGeometry x="540" y="470" width="60" height="30" as="geometry" />
        </mxCell>
        <mxCell id="hlCE5V2Zfkp0jTcQH9FX-23" style="edgeStyle=orthogonalEdgeStyle;rounded=0;orthogonalLoop=1;jettySize=auto;html=1;exitX=1;exitY=0.5;exitDx=0;exitDy=0;entryX=0;entryY=0.5;entryDx=0;entryDy=0;endArrow=none;endFill=0;" edge="1" parent="1" source="hlCE5V2Zfkp0jTcQH9FX-20" target="hlCE5V2Zfkp0jTcQH9FX-22">
          <mxGeometry relative="1" as="geometry" />
        </mxCell>
        <mxCell id="hlCE5V2Zfkp0jTcQH9FX-20" value="I_8" style="text;html=1;strokeColor=none;fillColor=none;align=center;verticalAlign=middle;whiteSpace=wrap;rounded=0;" vertex="1" parent="1">
          <mxGeometry x="760" y="370" width="60" height="30" as="geometry" />
        </mxCell>
        <mxCell id="hlCE5V2Zfkp0jTcQH9FX-25" style="edgeStyle=orthogonalEdgeStyle;rounded=0;orthogonalLoop=1;jettySize=auto;html=1;exitX=1;exitY=0.5;exitDx=0;exitDy=0;entryX=0;entryY=0.5;entryDx=0;entryDy=0;endArrow=none;endFill=0;" edge="1" parent="1" source="hlCE5V2Zfkp0jTcQH9FX-22" target="hlCE5V2Zfkp0jTcQH9FX-24">
          <mxGeometry relative="1" as="geometry" />
        </mxCell>
        <mxCell id="hlCE5V2Zfkp0jTcQH9FX-22" value="I_10 x 2" style="text;html=1;strokeColor=none;fillColor=none;align=center;verticalAlign=middle;whiteSpace=wrap;rounded=0;" vertex="1" parent="1">
          <mxGeometry x="840" y="370" width="60" height="30" as="geometry" />
        </mxCell>
        <mxCell id="hlCE5V2Zfkp0jTcQH9FX-24" value="I_5&amp;nbsp;" style="text;html=1;strokeColor=none;fillColor=none;align=center;verticalAlign=middle;whiteSpace=wrap;rounded=0;" vertex="1" parent="1">
          <mxGeometry x="920" y="370" width="60" height="30" as="geometry" />
        </mxCell>
        <mxCell id="hlCE5V2Zfkp0jTcQH9FX-29" style="edgeStyle=orthogonalEdgeStyle;rounded=0;orthogonalLoop=1;jettySize=auto;html=1;exitX=0.5;exitY=1;exitDx=0;exitDy=0;endArrow=none;endFill=0;" edge="1" parent="1" source="hlCE5V2Zfkp0jTcQH9FX-27" target="hlCE5V2Zfkp0jTcQH9FX-28">
          <mxGeometry relative="1" as="geometry" />
        </mxCell>
        <mxCell id="hlCE5V2Zfkp0jTcQH9FX-27" value="F_11 x 5" style="text;html=1;strokeColor=none;fillColor=none;align=center;verticalAlign=middle;whiteSpace=wrap;rounded=0;" vertex="1" parent="1">
          <mxGeometry x="380" y="470" width="60" height="30" as="geometry" />
        </mxCell>
        <mxCell id="hlCE5V2Zfkp0jTcQH9FX-31" style="edgeStyle=orthogonalEdgeStyle;rounded=0;orthogonalLoop=1;jettySize=auto;html=1;exitX=1;exitY=0.5;exitDx=0;exitDy=0;entryX=0;entryY=0.5;entryDx=0;entryDy=0;endArrow=none;endFill=0;" edge="1" parent="1" source="hlCE5V2Zfkp0jTcQH9FX-28" target="hlCE5V2Zfkp0jTcQH9FX-30">
          <mxGeometry relative="1" as="geometry" />
        </mxCell>
        <mxCell id="hlCE5V2Zfkp0jTcQH9FX-32" style="edgeStyle=orthogonalEdgeStyle;rounded=0;orthogonalLoop=1;jettySize=auto;html=1;exitX=0.5;exitY=1;exitDx=0;exitDy=0;endArrow=none;endFill=0;" edge="1" parent="1" source="hlCE5V2Zfkp0jTcQH9FX-28">
          <mxGeometry relative="1" as="geometry">
            <mxPoint x="409.80952380952374" y="570" as="targetPoint" />
          </mxGeometry>
        </mxCell>
        <mxCell id="hlCE5V2Zfkp0jTcQH9FX-28" value="F_3" style="text;html=1;strokeColor=none;fillColor=none;align=center;verticalAlign=middle;whiteSpace=wrap;rounded=0;" vertex="1" parent="1">
          <mxGeometry x="380" y="520" width="60" height="30" as="geometry" />
        </mxCell>
        <mxCell id="hlCE5V2Zfkp0jTcQH9FX-30" value="I_6" style="text;html=1;strokeColor=none;fillColor=none;align=center;verticalAlign=middle;whiteSpace=wrap;rounded=0;" vertex="1" parent="1">
          <mxGeometry x="460" y="520" width="60" height="30" as="geometry" />
        </mxCell>
        <mxCell id="hlCE5V2Zfkp0jTcQH9FX-33" value="I_3" style="text;html=1;strokeColor=none;fillColor=none;align=center;verticalAlign=middle;whiteSpace=wrap;rounded=0;" vertex="1" parent="1">
          <mxGeometry x="380" y="570" width="60" height="30" as="geometry" />
        </mxCell>
        <mxCell id="hlCE5V2Zfkp0jTcQH9FX-37" style="edgeStyle=orthogonalEdgeStyle;rounded=0;orthogonalLoop=1;jettySize=auto;html=1;exitX=1;exitY=0.5;exitDx=0;exitDy=0;entryX=0;entryY=0.5;entryDx=0;entryDy=0;endArrow=none;endFill=0;" edge="1" parent="1" source="hlCE5V2Zfkp0jTcQH9FX-34" target="hlCE5V2Zfkp0jTcQH9FX-36">
          <mxGeometry relative="1" as="geometry" />
        </mxCell>
        <mxCell id="hlCE5V2Zfkp0jTcQH9FX-55" style="edgeStyle=orthogonalEdgeStyle;rounded=0;orthogonalLoop=1;jettySize=auto;html=1;exitX=0.5;exitY=1;exitDx=0;exitDy=0;entryX=0.5;entryY=0;entryDx=0;entryDy=0;endArrow=none;endFill=0;" edge="1" parent="1" source="hlCE5V2Zfkp0jTcQH9FX-34" target="hlCE5V2Zfkp0jTcQH9FX-54">
          <mxGeometry relative="1" as="geometry" />
        </mxCell>
        <mxCell id="hlCE5V2Zfkp0jTcQH9FX-34" value="S_6 x 3" style="text;html=1;strokeColor=none;fillColor=none;align=center;verticalAlign=middle;whiteSpace=wrap;rounded=0;" vertex="1" parent="1">
          <mxGeometry x="840" y="420" width="60" height="30" as="geometry" />
        </mxCell>
        <mxCell id="hlCE5V2Zfkp0jTcQH9FX-39" style="edgeStyle=orthogonalEdgeStyle;rounded=0;orthogonalLoop=1;jettySize=auto;html=1;exitX=1;exitY=0.5;exitDx=0;exitDy=0;entryX=0;entryY=0.5;entryDx=0;entryDy=0;endArrow=none;endFill=0;" edge="1" parent="1" source="hlCE5V2Zfkp0jTcQH9FX-36" target="hlCE5V2Zfkp0jTcQH9FX-38">
          <mxGeometry relative="1" as="geometry" />
        </mxCell>
        <mxCell id="hlCE5V2Zfkp0jTcQH9FX-36" value="F_5 x 12" style="text;html=1;strokeColor=none;fillColor=none;align=center;verticalAlign=middle;whiteSpace=wrap;rounded=0;" vertex="1" parent="1">
          <mxGeometry x="920" y="420" width="60" height="30" as="geometry" />
        </mxCell>
        <mxCell id="hlCE5V2Zfkp0jTcQH9FX-41" style="edgeStyle=orthogonalEdgeStyle;rounded=0;orthogonalLoop=1;jettySize=auto;html=1;exitX=1;exitY=0.5;exitDx=0;exitDy=0;entryX=0;entryY=0.5;entryDx=0;entryDy=0;endArrow=none;endFill=0;" edge="1" parent="1" source="hlCE5V2Zfkp0jTcQH9FX-38" target="hlCE5V2Zfkp0jTcQH9FX-40">
          <mxGeometry relative="1" as="geometry" />
        </mxCell>
        <mxCell id="hlCE5V2Zfkp0jTcQH9FX-71" style="edgeStyle=orthogonalEdgeStyle;rounded=0;orthogonalLoop=1;jettySize=auto;html=1;exitX=0.5;exitY=1;exitDx=0;exitDy=0;entryX=0.5;entryY=0;entryDx=0;entryDy=0;endArrow=none;endFill=0;" edge="1" parent="1" source="hlCE5V2Zfkp0jTcQH9FX-38" target="hlCE5V2Zfkp0jTcQH9FX-70">
          <mxGeometry relative="1" as="geometry" />
        </mxCell>
        <mxCell id="hlCE5V2Zfkp0jTcQH9FX-38" value="F_6 x 2" style="text;html=1;strokeColor=none;fillColor=none;align=center;verticalAlign=middle;whiteSpace=wrap;rounded=0;" vertex="1" parent="1">
          <mxGeometry x="1000" y="420" width="60" height="30" as="geometry" />
        </mxCell>
        <mxCell id="hlCE5V2Zfkp0jTcQH9FX-43" style="edgeStyle=orthogonalEdgeStyle;rounded=0;orthogonalLoop=1;jettySize=auto;html=1;exitX=1;exitY=0.5;exitDx=0;exitDy=0;entryX=0;entryY=0.5;entryDx=0;entryDy=0;endArrow=none;endFill=0;" edge="1" parent="1" source="hlCE5V2Zfkp0jTcQH9FX-40" target="hlCE5V2Zfkp0jTcQH9FX-42">
          <mxGeometry relative="1" as="geometry" />
        </mxCell>
        <mxCell id="hlCE5V2Zfkp0jTcQH9FX-75" style="edgeStyle=orthogonalEdgeStyle;rounded=0;orthogonalLoop=1;jettySize=auto;html=1;exitX=0.5;exitY=1;exitDx=0;exitDy=0;entryX=0.5;entryY=0;entryDx=0;entryDy=0;endArrow=none;endFill=0;" edge="1" parent="1" source="hlCE5V2Zfkp0jTcQH9FX-40" target="hlCE5V2Zfkp0jTcQH9FX-74">
          <mxGeometry relative="1" as="geometry" />
        </mxCell>
        <mxCell id="hlCE5V2Zfkp0jTcQH9FX-40" value="F_7" style="text;html=1;strokeColor=none;fillColor=none;align=center;verticalAlign=middle;whiteSpace=wrap;rounded=0;" vertex="1" parent="1">
          <mxGeometry x="1080" y="420" width="60" height="30" as="geometry" />
        </mxCell>
        <mxCell id="hlCE5V2Zfkp0jTcQH9FX-45" style="edgeStyle=orthogonalEdgeStyle;rounded=0;orthogonalLoop=1;jettySize=auto;html=1;exitX=1;exitY=0.5;exitDx=0;exitDy=0;entryX=0;entryY=0.5;entryDx=0;entryDy=0;endArrow=none;endFill=0;" edge="1" parent="1" source="hlCE5V2Zfkp0jTcQH9FX-42" target="hlCE5V2Zfkp0jTcQH9FX-44">
          <mxGeometry relative="1" as="geometry" />
        </mxCell>
        <mxCell id="hlCE5V2Zfkp0jTcQH9FX-78" style="edgeStyle=orthogonalEdgeStyle;rounded=0;orthogonalLoop=1;jettySize=auto;html=1;exitX=0.5;exitY=1;exitDx=0;exitDy=0;entryX=0.5;entryY=0;entryDx=0;entryDy=0;endArrow=none;endFill=0;" edge="1" parent="1" source="hlCE5V2Zfkp0jTcQH9FX-42" target="hlCE5V2Zfkp0jTcQH9FX-77">
          <mxGeometry relative="1" as="geometry" />
        </mxCell>
        <mxCell id="hlCE5V2Zfkp0jTcQH9FX-42" value="F_8&amp;nbsp;" style="text;html=1;strokeColor=none;fillColor=none;align=center;verticalAlign=middle;whiteSpace=wrap;rounded=0;" vertex="1" parent="1">
          <mxGeometry x="1160" y="420" width="60" height="30" as="geometry" />
        </mxCell>
        <mxCell id="hlCE5V2Zfkp0jTcQH9FX-82" style="edgeStyle=orthogonalEdgeStyle;rounded=0;orthogonalLoop=1;jettySize=auto;html=1;exitX=0.5;exitY=1;exitDx=0;exitDy=0;entryX=0.5;entryY=0;entryDx=0;entryDy=0;endArrow=none;endFill=0;" edge="1" parent="1" source="hlCE5V2Zfkp0jTcQH9FX-44" target="hlCE5V2Zfkp0jTcQH9FX-81">
          <mxGeometry relative="1" as="geometry" />
        </mxCell>
        <mxCell id="hlCE5V2Zfkp0jTcQH9FX-44" value="F_4 x 8&amp;nbsp;" style="text;html=1;strokeColor=none;fillColor=none;align=center;verticalAlign=middle;whiteSpace=wrap;rounded=0;" vertex="1" parent="1">
          <mxGeometry x="1240" y="420" width="60" height="30" as="geometry" />
        </mxCell>
        <mxCell id="hlCE5V2Zfkp0jTcQH9FX-53" style="edgeStyle=orthogonalEdgeStyle;rounded=0;orthogonalLoop=1;jettySize=auto;html=1;exitX=0.5;exitY=1;exitDx=0;exitDy=0;entryX=0.5;entryY=0;entryDx=0;entryDy=0;endArrow=none;endFill=0;" edge="1" parent="1" source="hlCE5V2Zfkp0jTcQH9FX-46" target="hlCE5V2Zfkp0jTcQH9FX-50">
          <mxGeometry relative="1" as="geometry" />
        </mxCell>
        <mxCell id="hlCE5V2Zfkp0jTcQH9FX-46" value="F_11 x 4" style="text;html=1;strokeColor=none;fillColor=none;align=center;verticalAlign=middle;whiteSpace=wrap;rounded=0;" vertex="1" parent="1">
          <mxGeometry x="680" y="470" width="60" height="30" as="geometry" />
        </mxCell>
        <mxCell id="hlCE5V2Zfkp0jTcQH9FX-48" style="edgeStyle=orthogonalEdgeStyle;rounded=0;orthogonalLoop=1;jettySize=auto;html=1;exitX=1;exitY=0.5;exitDx=0;exitDy=0;entryX=0;entryY=0.5;entryDx=0;entryDy=0;endArrow=none;endFill=0;" edge="1" parent="1" source="hlCE5V2Zfkp0jTcQH9FX-50" target="hlCE5V2Zfkp0jTcQH9FX-51">
          <mxGeometry relative="1" as="geometry" />
        </mxCell>
        <mxCell id="hlCE5V2Zfkp0jTcQH9FX-49" style="edgeStyle=orthogonalEdgeStyle;rounded=0;orthogonalLoop=1;jettySize=auto;html=1;exitX=0.5;exitY=1;exitDx=0;exitDy=0;endArrow=none;endFill=0;" edge="1" parent="1" source="hlCE5V2Zfkp0jTcQH9FX-50">
          <mxGeometry relative="1" as="geometry">
            <mxPoint x="709.8095238095236" y="570" as="targetPoint" />
          </mxGeometry>
        </mxCell>
        <mxCell id="hlCE5V2Zfkp0jTcQH9FX-50" value="F_3" style="text;html=1;strokeColor=none;fillColor=none;align=center;verticalAlign=middle;whiteSpace=wrap;rounded=0;" vertex="1" parent="1">
          <mxGeometry x="680" y="520" width="60" height="30" as="geometry" />
        </mxCell>
        <mxCell id="hlCE5V2Zfkp0jTcQH9FX-51" value="I_6" style="text;html=1;strokeColor=none;fillColor=none;align=center;verticalAlign=middle;whiteSpace=wrap;rounded=0;" vertex="1" parent="1">
          <mxGeometry x="760" y="520" width="60" height="30" as="geometry" />
        </mxCell>
        <mxCell id="hlCE5V2Zfkp0jTcQH9FX-52" value="I_3" style="text;html=1;strokeColor=none;fillColor=none;align=center;verticalAlign=middle;whiteSpace=wrap;rounded=0;" vertex="1" parent="1">
          <mxGeometry x="680" y="570" width="60" height="30" as="geometry" />
        </mxCell>
        <mxCell id="hlCE5V2Zfkp0jTcQH9FX-56" style="edgeStyle=orthogonalEdgeStyle;rounded=0;orthogonalLoop=1;jettySize=auto;html=1;exitX=1;exitY=0.5;exitDx=0;exitDy=0;endArrow=none;endFill=0;" edge="1" parent="1" source="hlCE5V2Zfkp0jTcQH9FX-54">
          <mxGeometry relative="1" as="geometry">
            <mxPoint x="920" y="484.72413793103453" as="targetPoint" />
          </mxGeometry>
        </mxCell>
        <mxCell id="hlCE5V2Zfkp0jTcQH9FX-59" style="edgeStyle=orthogonalEdgeStyle;rounded=0;orthogonalLoop=1;jettySize=auto;html=1;exitX=0.5;exitY=1;exitDx=0;exitDy=0;entryX=0.5;entryY=0;entryDx=0;entryDy=0;endArrow=none;endFill=0;" edge="1" parent="1" source="hlCE5V2Zfkp0jTcQH9FX-54" target="hlCE5V2Zfkp0jTcQH9FX-58">
          <mxGeometry relative="1" as="geometry" />
        </mxCell>
        <mxCell id="hlCE5V2Zfkp0jTcQH9FX-54" value="S_5" style="text;html=1;strokeColor=none;fillColor=none;align=center;verticalAlign=middle;whiteSpace=wrap;rounded=0;" vertex="1" parent="1">
          <mxGeometry x="840" y="470" width="60" height="30" as="geometry" />
        </mxCell>
        <mxCell id="hlCE5V2Zfkp0jTcQH9FX-57" value="I_9" style="text;html=1;strokeColor=none;fillColor=none;align=center;verticalAlign=middle;whiteSpace=wrap;rounded=0;" vertex="1" parent="1">
          <mxGeometry x="920" y="470" width="60" height="30" as="geometry" />
        </mxCell>
        <mxCell id="hlCE5V2Zfkp0jTcQH9FX-61" style="edgeStyle=orthogonalEdgeStyle;rounded=0;orthogonalLoop=1;jettySize=auto;html=1;exitX=0.5;exitY=1;exitDx=0;exitDy=0;entryX=0.5;entryY=0;entryDx=0;entryDy=0;endArrow=none;endFill=0;" edge="1" parent="1" source="hlCE5V2Zfkp0jTcQH9FX-58" target="hlCE5V2Zfkp0jTcQH9FX-60">
          <mxGeometry relative="1" as="geometry" />
        </mxCell>
        <mxCell id="hlCE5V2Zfkp0jTcQH9FX-58" value="S_4" style="text;html=1;strokeColor=none;fillColor=none;align=center;verticalAlign=middle;whiteSpace=wrap;rounded=0;" vertex="1" parent="1">
          <mxGeometry x="840" y="520" width="60" height="30" as="geometry" />
        </mxCell>
        <mxCell id="hlCE5V2Zfkp0jTcQH9FX-63" style="edgeStyle=orthogonalEdgeStyle;rounded=0;orthogonalLoop=1;jettySize=auto;html=1;exitX=1;exitY=0.5;exitDx=0;exitDy=0;entryX=0;entryY=0.5;entryDx=0;entryDy=0;endArrow=none;endFill=0;" edge="1" parent="1" source="hlCE5V2Zfkp0jTcQH9FX-60" target="hlCE5V2Zfkp0jTcQH9FX-62">
          <mxGeometry relative="1" as="geometry" />
        </mxCell>
        <mxCell id="hlCE5V2Zfkp0jTcQH9FX-65" style="edgeStyle=orthogonalEdgeStyle;rounded=0;orthogonalLoop=1;jettySize=auto;html=1;exitX=0.5;exitY=1;exitDx=0;exitDy=0;entryX=0.5;entryY=0;entryDx=0;entryDy=0;endArrow=none;endFill=0;" edge="1" parent="1" source="hlCE5V2Zfkp0jTcQH9FX-60" target="hlCE5V2Zfkp0jTcQH9FX-64">
          <mxGeometry relative="1" as="geometry" />
        </mxCell>
        <mxCell id="hlCE5V2Zfkp0jTcQH9FX-60" value="S_3" style="text;html=1;strokeColor=none;fillColor=none;align=center;verticalAlign=middle;whiteSpace=wrap;rounded=0;" vertex="1" parent="1">
          <mxGeometry x="840" y="570" width="60" height="30" as="geometry" />
        </mxCell>
        <mxCell id="hlCE5V2Zfkp0jTcQH9FX-62" value="I_9" style="text;html=1;strokeColor=none;fillColor=none;align=center;verticalAlign=middle;whiteSpace=wrap;rounded=0;" vertex="1" parent="1">
          <mxGeometry x="920" y="570" width="60" height="30" as="geometry" />
        </mxCell>
        <mxCell id="hlCE5V2Zfkp0jTcQH9FX-67" style="edgeStyle=orthogonalEdgeStyle;rounded=0;orthogonalLoop=1;jettySize=auto;html=1;exitX=0.5;exitY=1;exitDx=0;exitDy=0;entryX=0.5;entryY=0;entryDx=0;entryDy=0;endArrow=none;endFill=0;" edge="1" parent="1" source="hlCE5V2Zfkp0jTcQH9FX-64" target="hlCE5V2Zfkp0jTcQH9FX-66">
          <mxGeometry relative="1" as="geometry" />
        </mxCell>
        <mxCell id="hlCE5V2Zfkp0jTcQH9FX-64" value="S_2" style="text;html=1;strokeColor=none;fillColor=none;align=center;verticalAlign=middle;whiteSpace=wrap;rounded=0;" vertex="1" parent="1">
          <mxGeometry x="840" y="620" width="60" height="30" as="geometry" />
        </mxCell>
        <mxCell id="hlCE5V2Zfkp0jTcQH9FX-69" style="edgeStyle=orthogonalEdgeStyle;rounded=0;orthogonalLoop=1;jettySize=auto;html=1;exitX=0.5;exitY=1;exitDx=0;exitDy=0;entryX=0.5;entryY=0;entryDx=0;entryDy=0;endArrow=none;endFill=0;" edge="1" parent="1" source="hlCE5V2Zfkp0jTcQH9FX-66" target="hlCE5V2Zfkp0jTcQH9FX-68">
          <mxGeometry relative="1" as="geometry" />
        </mxCell>
        <mxCell id="hlCE5V2Zfkp0jTcQH9FX-66" value="S_1" style="text;html=1;strokeColor=none;fillColor=none;align=center;verticalAlign=middle;whiteSpace=wrap;rounded=0;" vertex="1" parent="1">
          <mxGeometry x="840" y="670" width="60" height="30" as="geometry" />
        </mxCell>
        <mxCell id="hlCE5V2Zfkp0jTcQH9FX-68" value="I_1" style="text;html=1;strokeColor=none;fillColor=none;align=center;verticalAlign=middle;whiteSpace=wrap;rounded=0;" vertex="1" parent="1">
          <mxGeometry x="840" y="720" width="60" height="30" as="geometry" />
        </mxCell>
        <mxCell id="hlCE5V2Zfkp0jTcQH9FX-70" value="I_2&amp;nbsp;" style="text;html=1;strokeColor=none;fillColor=none;align=center;verticalAlign=middle;whiteSpace=wrap;rounded=0;" vertex="1" parent="1">
          <mxGeometry x="1000" y="470" width="60" height="30" as="geometry" />
        </mxCell>
        <mxCell id="hlCE5V2Zfkp0jTcQH9FX-72" value="I_4&amp;nbsp;" style="text;html=1;strokeColor=none;fillColor=none;align=center;verticalAlign=middle;whiteSpace=wrap;rounded=0;" vertex="1" parent="1">
          <mxGeometry x="1080" y="520" width="60" height="30" as="geometry" />
        </mxCell>
        <mxCell id="hlCE5V2Zfkp0jTcQH9FX-76" style="edgeStyle=orthogonalEdgeStyle;rounded=0;orthogonalLoop=1;jettySize=auto;html=1;exitX=0.5;exitY=1;exitDx=0;exitDy=0;entryX=0.5;entryY=0;entryDx=0;entryDy=0;endArrow=none;endFill=0;" edge="1" parent="1" source="hlCE5V2Zfkp0jTcQH9FX-74" target="hlCE5V2Zfkp0jTcQH9FX-72">
          <mxGeometry relative="1" as="geometry" />
        </mxCell>
        <mxCell id="hlCE5V2Zfkp0jTcQH9FX-74" value="F_9" style="text;html=1;strokeColor=none;fillColor=none;align=center;verticalAlign=middle;whiteSpace=wrap;rounded=0;" vertex="1" parent="1">
          <mxGeometry x="1080" y="470" width="60" height="30" as="geometry" />
        </mxCell>
        <mxCell id="hlCE5V2Zfkp0jTcQH9FX-77" value="I_2&amp;nbsp;" style="text;html=1;strokeColor=none;fillColor=none;align=center;verticalAlign=middle;whiteSpace=wrap;rounded=0;" vertex="1" parent="1">
          <mxGeometry x="1160" y="470" width="60" height="30" as="geometry" />
        </mxCell>
        <mxCell id="hlCE5V2Zfkp0jTcQH9FX-79" value="I_4&amp;nbsp;" style="text;html=1;strokeColor=none;fillColor=none;align=center;verticalAlign=middle;whiteSpace=wrap;rounded=0;" vertex="1" parent="1">
          <mxGeometry x="1240" y="520" width="60" height="30" as="geometry" />
        </mxCell>
        <mxCell id="hlCE5V2Zfkp0jTcQH9FX-80" style="edgeStyle=orthogonalEdgeStyle;rounded=0;orthogonalLoop=1;jettySize=auto;html=1;exitX=0.5;exitY=1;exitDx=0;exitDy=0;entryX=0.5;entryY=0;entryDx=0;entryDy=0;endArrow=none;endFill=0;" edge="1" parent="1" source="hlCE5V2Zfkp0jTcQH9FX-81" target="hlCE5V2Zfkp0jTcQH9FX-79">
          <mxGeometry relative="1" as="geometry" />
        </mxCell>
        <mxCell id="hlCE5V2Zfkp0jTcQH9FX-81" value="F_9" style="text;html=1;strokeColor=none;fillColor=none;align=center;verticalAlign=middle;whiteSpace=wrap;rounded=0;" vertex="1" parent="1">
          <mxGeometry x="1240" y="470" width="60" height="30" as="geometry" />
        </mxCell>
      </root>
    </mxGraphModel>
  </diagram>
</mxfile>
